<svg width="48" height="48" viewBox="0 0 48 48" fill="none" xmlns="http://www.w3.org/2000/svg">
<path d="M43 48H5C2.24 48 0 45.76 0 43V5C0 2.24 2.24 0 5 0H43C45.76 0 48 2.24 48 5V43C48 45.76 45.76 48 43 48Z" fill="white"/>
<path d="M32.97 30.8301L34.04 23.8501H27.34V19.3201C27.34 17.4101 28.28 15.5501 31.28 15.5501H34.33V9.61014C34.33 9.61014 31.57 9.14014 28.92 9.14014C23.4 9.14014 19.8 12.4801 19.8 18.5301V23.8501H13.67V30.8301H19.8V48.0001C21.06 48.0001 26.11 48.0001 27.35 48.0001V30.8301H32.97Z" fill="#66455A"/>
</svg>
