<svg width="160" height="160" viewBox="0 0 160 160" fill="none" xmlns="http://www.w3.org/2000/svg">
<g clip-path="url(#clip0_2_19)">
<path d="M87 73C90.86 76.86 90.87 83.13 87 87C83.14 90.86 76.87 90.86 73.01 87C69.15 83.14 69.15 76.87 73.01 73.01C76.87 69.14 83.13 69.14 87 73Z" fill="#FFA700"/>
<path d="M127.85 28.34C127.85 24.27 128.08 19.84 125.23 16.58C123.48 14.54 121.44 13.55 118.54 13.55C115.28 13.55 112.83 15.18 111.38 17.28C109.69 19.67 109.28 24.21 109.28 26.94V35.67C109.28 42.07 110.33 45.33 111.96 47.31C113.42 49.05 115.69 50.33 118.3 50.33C122.49 50.33 126.1 47.71 127.84 43.64V28.34H127.85ZM134.02 55.7C132.45 61.99 125.7 66.99 118.71 66.99C112.72 66.99 108.18 63.21 108.18 58.26C108.18 55.64 109.98 53.6 112.37 53.6C114.52 53.6 116.33 55.35 116.33 57.56C116.33 59.89 114.7 61.46 112.43 61.46C111.62 61.46 110.92 61.23 110.05 60.65C111.33 63.85 114.59 65.83 118.49 65.83C120.47 65.83 122.68 65.19 124.13 64.14C125.36 63.27 126.34 61.99 126.98 60.47C127.68 58.78 127.85 57.62 127.85 53.6V46.21C127.21 47.43 125.64 49 124.71 49.59C122.79 50.87 120.69 51.57 117.96 51.57C111.91 51.57 105.57 47.15 103.53 41.33C102.83 39.24 102.42 36.85 102.42 33.59V30.33C102.42 24.34 103.76 19.8 108.01 16.19C111.03 13.63 114.47 12.29 118.55 12.29C125.48 12.29 131.76 16.66 133.68 22.71C134.67 25.68 134.78 27.02 134.78 32.49L134.84 45.99C134.84 50.64 134.6 53.37 134.02 55.7Z" fill="#FFA700"/>
<path d="M77.31 9.64001C74.43 6.76001 71.47 3.47001 67.15 3.18001C64.47 2.97001 62.33 3.71001 60.27 5.77001C57.97 8.07001 57.39 10.96 57.84 13.47C58.34 16.35 61.26 19.85 63.19 21.78L69.36 27.95C73.88 32.48 76.93 34.04 79.48 34.29C81.74 34.5 84.25 33.79 86.11 31.94C89.07 28.97 89.77 24.57 88.13 20.46L77.31 9.64001ZM101.02 24.62C104.35 30.18 103.12 38.49 98.18 43.43C93.94 47.67 88.06 48.2 84.56 44.71C82.71 42.86 82.54 40.14 84.23 38.45C85.75 36.93 88.26 36.88 89.82 38.45C91.47 40.09 91.42 42.36 89.82 43.96C89.25 44.54 88.59 44.86 87.56 45.07C90.73 46.43 94.43 45.52 97.19 42.76C98.59 41.36 99.7 39.34 99.99 37.57C100.24 36.09 100.03 34.49 99.42 32.96C98.72 31.27 98.02 30.32 95.18 27.49L89.95 22.26C90.36 23.58 90.36 25.8 90.12 26.87C89.67 29.13 88.68 31.11 86.74 33.04C82.46 37.32 74.85 38.68 69.29 36.01C67.31 35.02 65.34 33.62 63.03 31.32L60.73 29.01C56.49 24.77 54.23 20.61 54.68 15.06C55.01 11.11 56.49 7.74001 59.37 4.86001C64.27 -0.0399885 71.79 -1.39999 77.44 1.53001C80.24 2.93001 81.27 3.79001 85.13 7.66001L94.72 17.17C98.01 20.46 99.78 22.56 101.02 24.62Z" fill="#FFA700"/>
<path d="M28.34 32.15C24.27 32.15 19.84 31.92 16.58 34.77C14.55 36.52 13.55 38.55 13.55 41.46C13.55 44.72 15.18 47.16 17.28 48.62C19.67 50.31 24.21 50.72 26.94 50.72H35.67C42.07 50.72 45.34 49.67 47.31 48.04C49.05 46.58 50.33 44.31 50.33 41.69C50.33 37.5 47.71 33.89 43.64 32.15H28.34ZM55.7 25.98C61.99 27.55 66.99 34.3 66.99 41.29C66.99 47.28 63.21 51.82 58.26 51.82C55.64 51.82 53.61 50.02 53.61 47.63C53.61 45.48 55.35 43.67 57.57 43.67C59.9 43.67 61.47 45.3 61.47 47.57C61.47 48.38 61.24 49.08 60.65 49.95C63.85 48.67 65.83 45.41 65.83 41.51C65.83 39.53 65.19 37.32 64.14 35.87C63.27 34.65 61.99 33.66 60.47 33.02C58.78 32.32 57.62 32.15 53.61 32.15H46.22C47.45 32.79 49.01 34.36 49.6 35.29C50.88 37.21 51.58 39.31 51.58 42.04C51.58 48.09 47.16 54.43 41.34 56.47C39.25 57.17 36.86 57.58 33.6 57.58H30.34C24.35 57.58 19.81 56.24 16.2 51.99C13.64 48.97 12.3 45.53 12.3 41.45C12.3 34.52 16.67 28.24 22.72 26.32C25.69 25.33 27.03 25.22 32.5 25.22L46.01 25.16C50.64 25.16 53.37 25.39 55.7 25.98Z" fill="#FFA700"/>
<path d="M9.64001 82.69C6.76001 85.57 3.46001 88.53 3.18001 92.85C2.97001 95.53 3.71001 97.67 5.77001 99.73C8.08001 102.03 10.96 102.61 13.47 102.16C16.35 101.66 19.84 98.74 21.78 96.81L27.95 90.64C32.47 86.12 34.04 83.07 34.29 80.52C34.49 78.26 33.79 75.75 31.94 73.89C28.98 70.93 24.58 70.23 20.46 71.87L9.64001 82.69ZM24.61 58.98C30.17 55.65 38.48 56.88 43.42 61.82C47.66 66.06 48.2 71.94 44.7 75.44C42.85 77.29 40.13 77.46 38.44 75.77C36.92 74.25 36.88 71.74 38.44 70.18C40.09 68.53 42.35 68.57 43.96 70.18C44.53 70.76 44.86 71.42 45.07 72.44C46.43 69.27 45.52 65.57 42.76 62.81C41.36 61.41 39.34 60.3 37.58 60.01C36.1 59.76 34.49 59.97 32.97 60.58C31.28 61.29 30.34 61.98 27.5 64.82L22.27 70.05C23.58 69.64 25.81 69.64 26.88 69.88C29.14 70.33 31.12 71.32 33.06 73.26C37.34 77.54 38.7 85.15 36.02 90.71C35.04 92.69 33.64 94.66 31.33 96.97L29.02 99.27C24.78 103.51 20.63 105.77 15.07 105.32C11.12 104.99 7.74001 103.51 4.86001 100.63C-0.0399885 95.73 -1.39999 88.2 1.53001 82.56C2.93001 79.76 3.79001 78.73 7.66001 74.87L17.17 65.28C20.46 61.99 22.56 60.22 24.61 58.98Z" fill="#FFA700"/>
<path d="M32.14 131.66C32.14 135.73 31.91 140.16 34.76 143.42C36.51 145.46 38.55 146.45 41.45 146.45C44.71 146.45 47.16 144.82 48.61 142.72C50.3 140.33 50.71 135.79 50.71 133.06V124.33C50.71 117.93 49.66 114.67 48.03 112.69C46.57 110.95 44.3 109.67 41.69 109.67C37.5 109.67 33.89 112.29 32.15 116.36V131.66H32.14ZM25.97 104.3C27.54 98.01 34.29 93.01 41.28 93.01C47.27 93.01 51.81 96.79 51.81 101.74C51.81 104.36 50.01 106.39 47.62 106.39C45.47 106.39 43.66 104.65 43.66 102.43C43.66 100.1 45.29 98.53 47.56 98.53C48.37 98.53 49.07 98.76 49.94 99.34C48.66 96.14 45.4 94.16 41.5 94.16C39.52 94.16 37.31 94.8 35.85 95.85C34.63 96.72 33.64 98 33 99.52C32.3 101.21 32.13 102.37 32.13 106.38V113.77C32.77 112.55 34.34 110.98 35.27 110.39C37.19 109.11 39.29 108.41 42.02 108.41C48.07 108.41 54.41 112.83 56.45 118.65C57.15 120.74 57.56 123.13 57.56 126.39V129.65C57.56 135.64 56.22 140.18 51.97 143.79C48.94 146.35 45.51 147.69 41.43 147.69C34.5 147.69 28.22 143.32 26.3 137.27C25.31 134.3 25.2 132.96 25.2 127.49L25.14 113.99C25.16 109.36 25.39 106.63 25.97 104.3Z" fill="#FFA700"/>
<path d="M82.69 150.36C85.57 153.24 88.53 156.53 92.85 156.82C95.53 157.03 97.67 156.29 99.73 154.23C102.03 151.93 102.61 149.04 102.16 146.53C101.66 143.65 98.74 140.15 96.81 138.22L90.64 132.05C86.12 127.52 83.07 125.96 80.52 125.71C78.26 125.5 75.75 126.21 73.89 128.06C70.93 131.03 70.23 135.43 71.87 139.54L82.69 150.36ZM58.98 135.38C55.65 129.82 56.88 121.51 61.82 116.57C66.06 112.33 71.94 111.8 75.44 115.29C77.29 117.14 77.46 119.86 75.77 121.55C74.25 123.07 71.74 123.12 70.18 121.55C68.53 119.91 68.58 117.64 70.18 116.04C70.76 115.46 71.42 115.14 72.44 114.93C69.27 113.57 65.57 114.48 62.81 117.24C61.41 118.64 60.3 120.66 60.01 122.43C59.76 123.91 59.97 125.51 60.58 127.04C61.28 128.73 61.98 129.68 64.82 132.51L70.05 137.74C69.64 136.42 69.64 134.2 69.88 133.13C70.33 130.87 71.32 128.89 73.26 126.96C77.54 122.68 85.15 121.32 90.71 123.99C92.69 124.98 94.66 126.38 96.97 128.68L99.27 130.99C103.51 135.23 105.77 139.39 105.32 144.94C104.99 148.89 103.51 152.26 100.63 155.14C95.73 160.04 88.2 161.4 82.56 158.47C79.76 157.07 78.73 156.21 74.87 152.34L65.28 142.83C61.99 139.54 60.21 137.44 58.98 135.38Z" fill="#FFA700"/>
<path d="M131.65 127.85C135.72 127.85 140.15 128.08 143.41 125.23C145.45 123.48 146.44 121.45 146.44 118.54C146.44 115.28 144.81 112.84 142.71 111.38C140.32 109.69 135.78 109.28 133.05 109.28H124.32C117.92 109.28 114.66 110.33 112.68 111.96C110.94 113.42 109.66 115.69 109.66 118.31C109.66 122.5 112.28 126.11 116.35 127.85H131.65ZM104.3 134.02C98.01 132.45 93.01 125.7 93.01 118.71C93.01 112.72 96.79 108.18 101.74 108.18C104.36 108.18 106.39 109.98 106.39 112.37C106.39 114.52 104.65 116.33 102.43 116.33C100.1 116.33 98.53 114.7 98.53 112.43C98.53 111.62 98.76 110.92 99.35 110.05C96.15 111.33 94.17 114.59 94.17 118.49C94.17 120.47 94.81 122.68 95.86 124.13C96.73 125.35 98.01 126.34 99.53 126.98C101.22 127.68 102.38 127.85 106.39 127.85H113.78C112.56 127.21 110.99 125.64 110.4 124.71C109.12 122.79 108.42 120.69 108.42 117.96C108.42 111.91 112.84 105.57 118.66 103.53C120.76 102.83 123.14 102.42 126.4 102.42H129.66C135.65 102.42 140.2 103.76 143.8 108.01C146.36 111.03 147.7 114.47 147.7 118.55C147.7 125.48 143.33 131.76 137.28 133.68C134.31 134.67 132.97 134.78 127.5 134.78L114 134.84C109.36 134.84 106.63 134.61 104.3 134.02Z" fill="#FFA700"/>
<path d="M150.37 77.31C153.25 74.43 156.54 71.47 156.83 67.15C157.04 64.47 156.3 62.33 154.24 60.28C151.94 57.97 149.05 57.4 146.54 57.85C143.66 58.35 140.16 61.27 138.23 63.2L132.06 69.37C127.53 73.89 125.97 76.94 125.72 79.49C125.51 81.75 126.22 84.26 128.07 86.12C131.03 89.08 135.43 89.78 139.55 88.14L150.37 77.31ZM135.39 101.01C129.83 104.34 121.52 103.11 116.58 98.17C112.34 93.93 111.81 88.05 115.3 84.55C117.15 82.7 119.87 82.53 121.56 84.22C123.08 85.74 123.13 88.25 121.56 89.81C119.92 91.46 117.65 91.42 116.05 89.81C115.47 89.23 115.15 88.57 114.94 87.55C113.58 90.72 114.49 94.42 117.25 97.18C118.65 98.58 120.67 99.69 122.44 99.98C123.92 100.23 125.52 100.02 127.05 99.41C128.74 98.71 129.69 98.01 132.52 95.17L137.75 89.94C136.43 90.35 134.21 90.35 133.14 90.11C130.88 89.66 128.9 88.67 126.97 86.73C122.69 82.45 121.33 74.84 124 69.28C124.99 67.3 126.39 65.33 128.69 63.02L131 60.72C135.24 56.48 139.4 54.22 144.95 54.67C148.9 55 152.27 56.48 155.15 59.36C160.05 64.26 161.41 71.79 158.48 77.43C157.08 80.23 156.22 81.26 152.35 85.12L142.84 94.71C139.54 98.01 137.44 99.78 135.39 101.01Z" fill="#FFA700"/>
</g>
<defs>
<clipPath id="clip0_2_19">
<rect width="160" height="160" fill="white"/>
</clipPath>
</defs>
</svg>
