<svg width="160" height="161" viewBox="0 0 160 161" fill="none" xmlns="http://www.w3.org/2000/svg">
<g clip-path="url(#clip0_4_3637)">
<path d="M88.57 71.43C93.3 76.16 93.31 83.84 88.57 88.58C83.84 93.31 76.16 93.31 71.43 88.58C66.7 83.85 66.7 76.17 71.43 71.44C76.17 66.7 83.84 66.7 88.57 71.43Z" fill="#FFA700"/>
<path d="M109.79 14.7801C107.72 12.7101 107.72 9.79011 109.69 7.83011C111.41 6.11011 113.77 5.86011 115.95 7.22011C115.65 6.51011 115.34 6.01011 114.79 5.45011C113.48 4.14011 112.16 3.64011 110.55 3.74011C108.49 3.88011 106.82 4.84011 103.6 8.07011L97.75 13.9201L103.44 19.6201L102.53 20.5301L96.84 14.8301L65.68 45.9801L69.57 49.8601L68.61 50.8201L55.35 37.5701L56.31 36.6101L59.69 39.9801L90.84 8.83011L87.51 5.50011L88.42 4.59011L91.8 7.97011L93.31 6.46011C97.95 1.82011 101.68 -0.399886 106.87 0.0601142C109.94 0.310114 113.47 2.02011 115.38 3.94011C118.76 7.32011 119.42 12.0101 116.7 14.7301C114.69 16.7501 111.76 16.7501 109.79 14.7801Z" fill="#FFA700"/>
<path d="M54.95 12.8202C52.03 12.8202 49.96 10.7502 49.96 7.97019C49.96 5.54018 51.46 3.69019 53.96 3.12019C53.24 2.83019 52.67 2.69019 51.89 2.69019C50.04 2.69019 48.75 3.26019 47.68 4.47019C46.32 6.04019 45.83 7.89019 45.83 12.4502V20.7202H53.88V22.0002H45.83V66.0602H51.32V67.4102H32.56V66.0602H37.34V22.0102H32.64V20.7302H37.42V18.5902C37.42 12.0302 38.49 7.82019 42.48 4.47019C44.83 2.47019 48.54 1.19019 51.25 1.19019C56.03 1.19019 59.81 4.04019 59.81 7.89019C59.8 10.7502 57.73 12.8202 54.95 12.8202Z" fill="#FFA700"/>
<path d="M14.78 50.2201C12.71 52.2901 9.78999 52.2901 7.82999 50.3201C6.10999 48.6001 5.85999 46.2301 7.21999 44.0701C6.50999 44.3701 6.00999 44.6801 5.44999 45.2301C4.13999 46.5401 3.63999 47.8601 3.73999 49.4701C3.87999 51.5401 4.83999 53.2001 8.06999 56.4301L13.92 62.2801L19.62 56.5901L20.53 57.5001L14.83 63.2001L45.99 94.3601L49.87 90.4801L50.83 91.4401L37.57 104.7L36.61 103.74L39.98 100.36L8.82999 69.1701L5.49999 72.5001L4.58999 71.5901L7.96999 68.2101L6.45999 66.7001C1.81999 62.0601 -0.400008 58.3301 0.0599921 53.1401C0.309992 50.0701 2.01999 46.5401 3.93999 44.6201C7.31999 41.2401 12.01 40.5901 14.73 43.3101C16.75 45.3201 16.75 48.2501 14.78 50.2201Z" fill="#FFA700"/>
<path d="M12.82 105.06C12.82 107.98 10.75 110.05 7.97 110.05C5.54 110.05 3.69 108.55 3.12 106.05C2.83 106.77 2.69 107.34 2.69 108.12C2.69 109.97 3.26 111.26 4.47 112.33C6.04 113.69 7.89 114.18 12.45 114.18H20.72V106.13H22V114.18H66.06V108.69H67.41V127.44H66.06V122.66H22.01V127.36H20.73V122.58H18.59C12.03 122.58 7.82 121.51 4.47 117.52C2.48 115.16 1.19 111.46 1.19 108.75C1.19 103.97 4.04 100.19 7.89 100.19C10.75 100.21 12.82 102.28 12.82 105.06Z" fill="#FFA700"/>
<path d="M50.22 145.23C52.29 147.3 52.29 150.22 50.32 152.18C48.6 153.9 46.23 154.15 44.06 152.79C44.37 153.5 44.66 154 45.22 154.56C46.53 155.87 47.85 156.37 49.46 156.27C51.53 156.13 53.19 155.17 56.41 151.94L62.26 146.09L56.56 140.39L57.47 139.48L63.17 145.18L94.33 114.02L90.45 110.14L91.41 109.18L104.67 122.44L103.71 123.4L100.34 120.03L69.18 151.19L72.5 154.51L71.59 155.42L68.21 152.04L66.7 153.55C62.06 158.19 58.33 160.41 53.14 159.95C50.06 159.7 46.54 157.99 44.62 156.07C41.24 152.69 40.59 148 43.31 145.28C45.33 143.27 48.25 143.27 50.22 145.23Z" fill="#FFA700"/>
<path d="M105.05 147.19C107.97 147.19 110.04 149.26 110.04 152.04C110.04 154.47 108.54 156.32 106.04 156.89C106.76 157.18 107.33 157.32 108.11 157.32C109.96 157.32 111.25 156.75 112.32 155.54C113.68 153.97 114.17 152.12 114.17 147.56V139.29H106.12V138H114.17V93.9301H108.68V92.5801H127.43V93.9301H122.65V138H127.35V139.28H122.57V141.42C122.57 147.98 121.5 152.19 117.51 155.54C115.15 157.54 111.45 158.82 108.74 158.82C103.96 158.82 100.18 155.97 100.18 152.12C100.2 149.26 102.27 147.19 105.05 147.19Z" fill="#FFA700"/>
<path d="M145.22 109.79C147.29 107.72 150.21 107.72 152.17 109.69C153.89 111.41 154.14 113.78 152.78 115.94C153.49 115.64 153.99 115.33 154.55 114.78C155.86 113.47 156.36 112.15 156.26 110.54C156.12 108.47 155.16 106.81 151.93 103.58L146.08 97.7301L140.38 103.42L139.47 102.51L145.17 96.8101L114.01 65.6501L110.13 69.5301L109.17 68.5701L122.43 55.3101L123.39 56.2701L120.02 59.6501L151.18 90.8101L154.5 87.4801L155.41 88.3901L152.03 91.7701L153.54 93.2801C158.18 97.9201 160.4 101.65 159.94 106.84C159.69 109.91 157.98 113.44 156.06 115.36C152.68 118.74 147.99 119.39 145.27 116.67C143.25 114.69 143.25 111.76 145.22 109.79Z" fill="#FFA700"/>
<path d="M147.18 54.9401C147.18 52.0201 149.25 49.9501 152.03 49.9501C154.45 49.9501 156.31 51.4501 156.88 53.9501C157.17 53.2301 157.31 52.6601 157.31 51.8801C157.31 50.0301 156.74 48.7401 155.53 47.6701C153.96 46.3101 152.11 45.8201 147.55 45.8201H139.28V53.8701H138V45.8201H93.92V51.3101H92.57V32.5601H93.92V37.3401H137.98V32.6401H139.26V37.4201H141.4C147.96 37.4201 152.17 38.4901 155.52 42.4801C157.51 44.8401 158.8 48.5401 158.8 51.2501C158.8 56.0301 155.95 59.8101 152.1 59.8101C149.25 59.8001 147.18 57.7301 147.18 54.9401Z" fill="#FFA700"/>
</g>
<defs>
<clipPath id="clip0_4_3637">
<rect width="160" height="160.01" fill="white"/>
</clipPath>
</defs>
</svg>
