<svg width="160" height="160" viewBox="0 0 160 160" fill="none" xmlns="http://www.w3.org/2000/svg">
<g clip-path="url(#clip0_5_3706)">
<path d="M87 73.0002C90.86 76.8602 90.87 83.1302 87 87.0002C83.14 90.8602 76.87 90.8602 73.01 87.0002C69.15 83.1402 69.15 76.8702 73.01 73.0102C76.87 69.1402 83.13 69.1402 87 73.0002Z" fill="#FFA700"/>
<path d="M127.85 28.34C127.85 24.27 128.08 19.84 125.23 16.58C123.48 14.54 121.44 13.55 118.54 13.55C115.28 13.55 112.83 15.18 111.38 17.28C109.69 19.67 109.28 24.21 109.28 26.94V35.67C109.28 42.07 110.33 45.33 111.96 47.31C113.42 49.05 115.69 50.33 118.3 50.33C122.49 50.33 126.1 47.71 127.84 43.64V28.34H127.85ZM134.02 55.7C132.45 61.99 125.7 66.99 118.71 66.99C112.72 66.99 108.18 63.21 108.18 58.26C108.18 55.64 109.98 53.6 112.37 53.6C114.52 53.6 116.33 55.35 116.33 57.56C116.33 59.89 114.7 61.46 112.43 61.46C111.62 61.46 110.92 61.23 110.05 60.65C111.33 63.85 114.59 65.83 118.49 65.83C120.47 65.83 122.68 65.19 124.13 64.14C125.36 63.27 126.34 61.99 126.98 60.47C127.68 58.78 127.85 57.62 127.85 53.6V46.21C127.21 47.43 125.64 49 124.71 49.59C122.79 50.87 120.69 51.57 117.96 51.57C111.91 51.57 105.57 47.15 103.53 41.33C102.83 39.24 102.42 36.85 102.42 33.59V30.33C102.42 24.34 103.76 19.8 108.01 16.19C111.03 13.63 114.47 12.29 118.55 12.29C125.48 12.29 131.76 16.66 133.68 22.71C134.67 25.68 134.78 27.02 134.78 32.49L134.84 45.99C134.84 50.64 134.6 53.37 134.02 55.7Z" fill="#FFA700"/>
<path d="M77.31 9.64019C74.43 6.76019 71.47 3.47019 67.15 3.18019C64.47 2.97019 62.33 3.71019 60.27 5.77019C57.97 8.07019 57.39 10.9602 57.84 13.4702C58.34 16.3502 61.26 19.8502 63.19 21.7802L69.36 27.9502C73.88 32.4802 76.93 34.0402 79.48 34.2902C81.74 34.5002 84.25 33.7902 86.11 31.9402C89.07 28.9702 89.77 24.5702 88.13 20.4602L77.31 9.64019ZM101.02 24.6202C104.35 30.1802 103.12 38.4902 98.18 43.4302C93.94 47.6702 88.06 48.2002 84.56 44.7102C82.71 42.8602 82.54 40.1402 84.23 38.4502C85.75 36.9302 88.26 36.8802 89.82 38.4502C91.47 40.0902 91.42 42.3602 89.82 43.9602C89.25 44.5402 88.59 44.8602 87.56 45.0702C90.73 46.4302 94.43 45.5202 97.19 42.7602C98.59 41.3602 99.7 39.3402 99.99 37.5702C100.24 36.0902 100.03 34.4902 99.42 32.9602C98.72 31.2702 98.02 30.3202 95.18 27.4902L89.95 22.2602C90.36 23.5802 90.36 25.8002 90.12 26.8702C89.67 29.1302 88.68 31.1102 86.74 33.0402C82.46 37.3202 74.85 38.6802 69.29 36.0102C67.31 35.0202 65.34 33.6202 63.03 31.3202L60.73 29.0102C56.49 24.7702 54.23 20.6102 54.68 15.0602C55.01 11.1102 56.49 7.74019 59.37 4.86019C64.27 -0.0398054 71.79 -1.39981 77.44 1.53019C80.24 2.93019 81.27 3.79019 85.13 7.66019L94.72 17.1702C98.01 20.4602 99.78 22.5602 101.02 24.6202Z" fill="#FFA700"/>
<path d="M28.34 32.1502C24.27 32.1502 19.84 31.9202 16.58 34.7702C14.55 36.5202 13.55 38.5502 13.55 41.4602C13.55 44.7202 15.18 47.1602 17.28 48.6202C19.67 50.3102 24.21 50.7202 26.94 50.7202H35.67C42.07 50.7202 45.34 49.6702 47.31 48.0402C49.05 46.5802 50.33 44.3102 50.33 41.6902C50.33 37.5002 47.71 33.8902 43.64 32.1502H28.34ZM55.7 25.9802C61.99 27.5502 66.99 34.3002 66.99 41.2902C66.99 47.2802 63.21 51.8202 58.26 51.8202C55.64 51.8202 53.61 50.0202 53.61 47.6302C53.61 45.4802 55.35 43.6702 57.57 43.6702C59.9 43.6702 61.47 45.3002 61.47 47.5702C61.47 48.3802 61.24 49.0802 60.65 49.9502C63.85 48.6702 65.83 45.4102 65.83 41.5102C65.83 39.5302 65.19 37.3202 64.14 35.8702C63.27 34.6502 61.99 33.6602 60.47 33.0202C58.78 32.3202 57.62 32.1502 53.61 32.1502H46.22C47.45 32.7902 49.01 34.3602 49.6 35.2902C50.88 37.2102 51.58 39.3102 51.58 42.0402C51.58 48.0902 47.16 54.4302 41.34 56.4702C39.25 57.1702 36.86 57.5802 33.6 57.5802H30.34C24.35 57.5802 19.81 56.2402 16.2 51.9902C13.64 48.9702 12.3 45.5302 12.3 41.4502C12.3 34.5202 16.67 28.2402 22.72 26.3202C25.69 25.3302 27.03 25.2202 32.5 25.2202L46.01 25.1602C50.64 25.1602 53.37 25.3902 55.7 25.9802Z" fill="#FFA700"/>
<path d="M9.64001 82.6903C6.76001 85.5703 3.46001 88.5303 3.18001 92.8503C2.97001 95.5303 3.71001 97.6703 5.77001 99.7303C8.08001 102.03 10.96 102.61 13.47 102.16C16.35 101.66 19.84 98.7403 21.78 96.8103L27.95 90.6403C32.47 86.1203 34.04 83.0703 34.29 80.5203C34.49 78.2603 33.79 75.7503 31.94 73.8903C28.98 70.9303 24.58 70.2303 20.46 71.8703L9.64001 82.6903ZM24.61 58.9803C30.17 55.6503 38.48 56.8803 43.42 61.8203C47.66 66.0603 48.2 71.9403 44.7 75.4403C42.85 77.2903 40.13 77.4603 38.44 75.7703C36.92 74.2503 36.88 71.7403 38.44 70.1803C40.09 68.5303 42.35 68.5703 43.96 70.1803C44.53 70.7603 44.86 71.4203 45.07 72.4403C46.43 69.2703 45.52 65.5703 42.76 62.8103C41.36 61.4103 39.34 60.3003 37.58 60.0103C36.1 59.7603 34.49 59.9703 32.97 60.5803C31.28 61.2903 30.34 61.9803 27.5 64.8203L22.27 70.0503C23.58 69.6403 25.81 69.6403 26.88 69.8803C29.14 70.3303 31.12 71.3203 33.06 73.2603C37.34 77.5403 38.7 85.1503 36.02 90.7103C35.04 92.6903 33.64 94.6603 31.33 96.9703L29.02 99.2703C24.78 103.51 20.63 105.77 15.07 105.32C11.12 104.99 7.74001 103.51 4.86001 100.63C-0.0399885 95.7303 -1.39999 88.2003 1.53001 82.5603C2.93001 79.7603 3.79001 78.7303 7.66001 74.8703L17.17 65.2803C20.46 61.9903 22.56 60.2203 24.61 58.9803Z" fill="#FFA700"/>
<path d="M32.14 131.66C32.14 135.73 31.91 140.16 34.76 143.42C36.51 145.46 38.55 146.45 41.45 146.45C44.71 146.45 47.16 144.82 48.61 142.72C50.3 140.33 50.71 135.79 50.71 133.06V124.33C50.71 117.93 49.66 114.67 48.03 112.69C46.57 110.95 44.3 109.67 41.69 109.67C37.5 109.67 33.89 112.29 32.15 116.36V131.66H32.14ZM25.97 104.3C27.54 98.0103 34.29 93.0103 41.28 93.0103C47.27 93.0103 51.81 96.7902 51.81 101.74C51.81 104.36 50.01 106.39 47.62 106.39C45.47 106.39 43.66 104.65 43.66 102.43C43.66 100.1 45.29 98.5303 47.56 98.5303C48.37 98.5303 49.07 98.7602 49.94 99.3402C48.66 96.1402 45.4 94.1603 41.5 94.1603C39.52 94.1603 37.31 94.8003 35.85 95.8503C34.63 96.7203 33.64 98.0002 33 99.5202C32.3 101.21 32.13 102.37 32.13 106.38V113.77C32.77 112.55 34.34 110.98 35.27 110.39C37.19 109.11 39.29 108.41 42.02 108.41C48.07 108.41 54.41 112.83 56.45 118.65C57.15 120.74 57.56 123.13 57.56 126.39V129.65C57.56 135.64 56.22 140.18 51.97 143.79C48.94 146.35 45.51 147.69 41.43 147.69C34.5 147.69 28.22 143.32 26.3 137.27C25.31 134.3 25.2 132.96 25.2 127.49L25.14 113.99C25.16 109.36 25.39 106.63 25.97 104.3Z" fill="#FFA700"/>
<path d="M82.69 150.36C85.57 153.24 88.53 156.53 92.85 156.82C95.53 157.03 97.67 156.29 99.73 154.23C102.03 151.93 102.61 149.04 102.16 146.53C101.66 143.65 98.74 140.15 96.81 138.22L90.64 132.05C86.12 127.52 83.07 125.96 80.52 125.71C78.26 125.5 75.75 126.21 73.89 128.06C70.93 131.03 70.23 135.43 71.87 139.54L82.69 150.36ZM58.98 135.38C55.65 129.82 56.88 121.51 61.82 116.57C66.06 112.33 71.94 111.8 75.44 115.29C77.29 117.14 77.46 119.86 75.77 121.55C74.25 123.07 71.74 123.12 70.18 121.55C68.53 119.91 68.58 117.64 70.18 116.04C70.76 115.46 71.42 115.14 72.44 114.93C69.27 113.57 65.57 114.48 62.81 117.24C61.41 118.64 60.3 120.66 60.01 122.43C59.76 123.91 59.97 125.51 60.58 127.04C61.28 128.73 61.98 129.68 64.82 132.51L70.05 137.74C69.64 136.42 69.64 134.2 69.88 133.13C70.33 130.87 71.32 128.89 73.26 126.96C77.54 122.68 85.15 121.32 90.71 123.99C92.69 124.98 94.66 126.38 96.97 128.68L99.27 130.99C103.51 135.23 105.77 139.39 105.32 144.94C104.99 148.89 103.51 152.26 100.63 155.14C95.73 160.04 88.2 161.4 82.56 158.47C79.76 157.07 78.73 156.21 74.87 152.34L65.28 142.83C61.99 139.54 60.21 137.44 58.98 135.38Z" fill="#FFA700"/>
<path d="M131.65 127.85C135.72 127.85 140.15 128.08 143.41 125.23C145.45 123.48 146.44 121.45 146.44 118.54C146.44 115.28 144.81 112.84 142.71 111.38C140.32 109.69 135.78 109.28 133.05 109.28H124.32C117.92 109.28 114.66 110.33 112.68 111.96C110.94 113.42 109.66 115.69 109.66 118.31C109.66 122.5 112.28 126.11 116.35 127.85H131.65ZM104.3 134.02C98.01 132.45 93.01 125.7 93.01 118.71C93.01 112.72 96.79 108.18 101.74 108.18C104.36 108.18 106.39 109.98 106.39 112.37C106.39 114.52 104.65 116.33 102.43 116.33C100.1 116.33 98.53 114.7 98.53 112.43C98.53 111.62 98.76 110.92 99.35 110.05C96.15 111.33 94.17 114.59 94.17 118.49C94.17 120.47 94.81 122.68 95.86 124.13C96.73 125.35 98.01 126.34 99.53 126.98C101.22 127.68 102.38 127.85 106.39 127.85H113.78C112.56 127.21 110.99 125.64 110.4 124.71C109.12 122.79 108.42 120.69 108.42 117.96C108.42 111.91 112.84 105.57 118.66 103.53C120.76 102.83 123.14 102.42 126.4 102.42H129.66C135.65 102.42 140.2 103.76 143.8 108.01C146.36 111.03 147.7 114.47 147.7 118.55C147.7 125.48 143.33 131.76 137.28 133.68C134.31 134.67 132.97 134.78 127.5 134.78L114 134.84C109.36 134.84 106.63 134.61 104.3 134.02Z" fill="#FFA700"/>
<path d="M150.37 77.3102C153.25 74.4302 156.54 71.4702 156.83 67.1502C157.04 64.4702 156.3 62.3302 154.24 60.2802C151.94 57.9702 149.05 57.4002 146.54 57.8502C143.66 58.3502 140.16 61.2702 138.23 63.2002L132.06 69.3702C127.53 73.8902 125.97 76.9402 125.72 79.4902C125.51 81.7502 126.22 84.2602 128.07 86.1202C131.03 89.0802 135.43 89.7802 139.55 88.1402L150.37 77.3102ZM135.39 101.01C129.83 104.34 121.52 103.11 116.58 98.1702C112.34 93.9302 111.81 88.0502 115.3 84.5502C117.15 82.7002 119.87 82.5302 121.56 84.2202C123.08 85.7402 123.13 88.2502 121.56 89.8102C119.92 91.4602 117.65 91.4202 116.05 89.8102C115.47 89.2302 115.15 88.5702 114.94 87.5502C113.58 90.7202 114.49 94.4202 117.25 97.1802C118.65 98.5802 120.67 99.6902 122.44 99.9802C123.92 100.23 125.52 100.02 127.05 99.4102C128.74 98.7102 129.69 98.0102 132.52 95.1702L137.75 89.9402C136.43 90.3502 134.21 90.3502 133.14 90.1102C130.88 89.6602 128.9 88.6702 126.97 86.7302C122.69 82.4502 121.33 74.8402 124 69.2802C124.99 67.3002 126.39 65.3302 128.69 63.0202L131 60.7202C135.24 56.4802 139.4 54.2202 144.95 54.6702C148.9 55.0002 152.27 56.4802 155.15 59.3602C160.05 64.2602 161.41 71.7902 158.48 77.4302C157.08 80.2302 156.22 81.2602 152.35 85.1202L142.84 94.7102C139.54 98.0102 137.44 99.7802 135.39 101.01Z" fill="#FFA700"/>
</g>
<defs>
<clipPath id="clip0_5_3706">
<rect width="160" height="160" fill="white"/>
</clipPath>
</defs>
</svg>
