<svg width="160" height="161" viewBox="0 0 160 161" fill="none" xmlns="http://www.w3.org/2000/svg">
<g clip-path="url(#clip0_4_3650)">
<path d="M87.13 72.8696C91.07 76.8096 91.07 83.1996 87.13 87.1396C83.19 91.0796 76.8 91.0796 72.86 87.1396C68.92 83.1996 68.92 76.8096 72.86 72.8796C76.8 68.9196 83.19 68.9296 87.13 72.8696Z" fill="#FFA700"/>
<path d="M116.41 75.58C118.49 75.58 120.21 77.3 120.21 79.38C120.21 81.46 118.49 83.18 116.41 83.18C114.33 83.18 112.61 81.46 112.61 79.38C112.61 77.3 114.34 75.58 116.41 75.58ZM116.77 17.19C118.73 15.53 121.81 14.46 124.07 14.46C128.05 14.46 131.19 16.83 131.19 20.04C131.19 22.41 129.47 24.13 127.15 24.13C124.72 24.13 123 22.41 123 20.1C123 18.08 124.24 16.54 126.32 16.06C125.73 15.82 125.25 15.71 124.6 15.71C123.06 15.71 121.99 16.19 121.1 17.19C119.97 18.49 119.56 20.04 119.56 23.83V68.45H124.13V69.58H112.62V28.94C112.62 23.48 113.44 19.98 116.77 17.19Z" fill="#FFA700"/>
<path d="M102.63 51.1298C104.1 49.6598 106.53 49.6598 108 51.1298C109.47 52.5998 109.47 55.0298 108 56.4998C106.53 57.9698 104.1 57.9698 102.63 56.4998C101.16 55.0298 101.16 52.5898 102.63 51.1298ZM61.59 9.58983C61.8 7.02983 63.23 4.08983 64.82 2.49983C67.63 -0.310166 71.53 -0.860166 73.79 1.40983C75.47 3.08983 75.47 5.51983 73.84 7.15983C72.12 8.87983 69.69 8.87983 68.05 7.23983C66.62 5.80983 66.41 3.83983 67.55 2.03983C66.96 2.28983 66.54 2.53983 66.08 2.99983C64.99 4.08983 64.58 5.18983 64.66 6.52983C64.78 8.24983 65.58 9.62983 68.27 12.3198L99.82 43.8798L103.05 40.6498L103.85 41.4498L95.71 49.5898L66.96 20.8298C63.1 16.9698 61.22 13.9098 61.59 9.58983Z" fill="#FFA700"/>
<path d="M75.58 43.5798C75.58 41.4998 77.3 39.7798 79.38 39.7798C81.46 39.7798 83.18 41.4998 83.18 43.5798C83.18 45.6598 81.46 47.3798 79.38 47.3798C77.3 47.3798 75.58 45.6598 75.58 43.5798ZM17.19 43.2198C15.53 41.2598 14.46 38.1798 14.46 35.9198C14.46 31.9398 16.83 28.7998 20.04 28.7998C22.41 28.7998 24.13 30.5198 24.13 32.8298C24.13 35.2598 22.41 36.9798 20.1 36.9798C18.08 36.9798 16.54 35.7298 16.06 33.6598C15.82 34.2498 15.71 34.7298 15.71 35.3798C15.71 36.9198 16.19 37.9898 17.19 38.8798C18.49 40.0098 20.04 40.4198 23.84 40.4198H68.46V35.8498H69.59V47.3598H28.94C23.48 47.3798 19.98 46.5498 17.19 43.2198Z" fill="#FFA700"/>
<path d="M51.13 57.37C49.66 55.9 49.66 53.47 51.13 52C52.6 50.53 55.03 50.53 56.5 52C57.97 53.47 57.97 55.9 56.5 57.37C55.03 58.84 52.59 58.84 51.13 57.37ZM9.59002 98.4C7.03002 98.19 4.09002 96.76 2.50002 95.17C-0.309983 92.36 -0.859983 88.46 1.41002 86.2C3.09002 84.52 5.52002 84.52 7.16002 86.15C8.88002 87.87 8.88002 90.3 7.24002 91.94C5.81002 93.37 3.84002 93.58 2.04002 92.45C2.29002 93.04 2.55002 93.46 3.00002 93.92C4.09002 95.01 5.18002 95.42 6.52002 95.34C8.24002 95.22 9.62002 94.42 12.31 91.74L43.86 60.18L40.63 56.95L41.43 56.15L49.57 64.29L20.83 93.03C16.97 96.89 13.91 98.78 9.59002 98.4Z" fill="#FFA700"/>
<path d="M43.58 84.4198C41.5 84.4198 39.78 82.6998 39.78 80.6198C39.78 78.5398 41.5 76.8198 43.58 76.8198C45.66 76.8198 47.38 78.5398 47.38 80.6198C47.38 82.6898 45.65 84.4198 43.58 84.4198ZM43.22 142.8C41.26 144.46 38.18 145.53 35.92 145.53C31.95 145.53 28.8 143.16 28.8 139.95C28.8 137.58 30.52 135.86 32.84 135.86C35.27 135.86 36.99 137.58 36.99 139.89C36.99 141.91 35.75 143.45 33.67 143.93C34.26 144.17 34.74 144.28 35.39 144.28C36.93 144.28 38 143.8 38.89 142.8C40.02 141.5 40.43 139.95 40.43 136.16V91.5398H35.86V90.4098H47.37V131.06C47.38 136.51 46.55 140.01 43.22 142.8Z" fill="#FFA700"/>
<path d="M98.4 150.42C98.19 152.98 96.76 155.92 95.17 157.51C92.36 160.32 88.46 160.87 86.19 158.6C84.51 156.92 84.51 154.49 86.15 152.85C87.87 151.13 90.3 151.13 91.94 152.77C93.37 154.2 93.58 156.17 92.44 157.97C93.03 157.72 93.45 157.47 93.91 157.01C95 155.92 95.42 154.82 95.33 153.48C95.2 151.76 94.41 150.38 91.72 147.69L60.17 116.14L56.94 119.37L56.14 118.57L64.28 110.43L93.02 139.17C96.89 143.03 98.78 146.09 98.4 150.42ZM57.37 108.88C55.9 110.35 53.47 110.35 52 108.88C50.53 107.41 50.53 104.98 52 103.51C53.47 102.04 55.9 102.04 57.37 103.51C58.84 104.97 58.84 107.41 57.37 108.88Z" fill="#FFA700"/>
<path d="M142.8 116.77C144.46 118.73 145.53 121.81 145.53 124.07C145.53 128.04 143.16 131.19 139.96 131.19C137.59 131.19 135.86 129.47 135.86 127.16C135.86 124.73 137.58 123.01 139.89 123.01C141.91 123.01 143.45 124.26 143.93 126.33C144.17 125.74 144.28 125.26 144.28 124.61C144.28 123.07 143.81 122 142.8 121.11C141.5 119.98 139.95 119.57 136.16 119.57H91.53V124.14H90.4V112.63H131.05C136.51 112.62 140.01 113.45 142.8 116.77ZM84.41 116.41C84.41 118.49 82.69 120.21 80.61 120.21C78.53 120.21 76.81 118.49 76.81 116.41C76.81 114.33 78.53 112.61 80.61 112.61C82.69 112.62 84.41 114.34 84.41 116.41Z" fill="#FFA700"/>
<path d="M150.41 61.5897C152.97 61.7997 155.9 63.2297 157.5 64.8197C160.31 67.6297 160.86 71.5297 158.59 73.7997C156.91 75.4797 154.48 75.4797 152.84 73.8397C151.12 72.1197 151.12 69.6897 152.76 68.0497C154.18 66.6197 156.16 66.4097 157.96 67.5397C157.71 66.9497 157.46 66.5297 157 66.0697C155.91 64.9797 154.82 64.5597 153.47 64.6497C151.75 64.7797 150.37 65.5697 147.68 68.2597L116.13 99.8097L119.36 103.04L118.56 103.84L110.42 95.6997L139.16 66.9597C143.03 63.0997 146.09 61.2197 150.41 61.5897ZM108.87 102.63C110.34 104.1 110.34 106.53 108.87 108C107.4 109.47 104.97 109.47 103.5 108C102.03 106.53 102.03 104.1 103.5 102.63C104.97 101.16 107.41 101.16 108.87 102.63Z" fill="#FFA700"/>
</g>
<defs>
<clipPath id="clip0_4_3650">
<rect width="160" height="160.01" fill="white"/>
</clipPath>
</defs>
</svg>
