<svg width="225" height="126" viewBox="0 0 225 126" fill="none" xmlns="http://www.w3.org/2000/svg">
<g clip-path="url(#clip0_6_3743)">
<path d="M124.57 114.11C124.46 114.11 124.4 114.13 124.27 114.15V118.6C124.38 118.62 124.4 118.62 124.57 118.62C125.7 118.62 126.27 117.88 126.27 116.36C126.27 114.98 125.76 114.11 124.57 114.11ZM126.23 125.67L124.99 120.73C124.9 120.75 124.76 120.75 124.65 120.75C124.54 120.75 124.37 120.75 124.27 120.73V125.67H121.67V111.92C122.25 111.83 123.22 111.73 124.14 111.73C127.37 111.73 128.87 113.79 128.87 116.14C128.87 117.89 128.34 118.97 127.21 119.86L128.98 125.67H126.23Z" fill="white"/>
<path d="M56.94 122.49C56.94 124.64 56.07 125.89 53.85 125.89C53 125.89 52.04 125.57 51.19 125.04L52.21 122.89C52.74 123.21 53.19 123.44 53.62 123.44C54.09 123.44 54.34 123.19 54.34 122.67V111.86H56.94V122.49Z" fill="white"/>
<path d="M21.24 70.09V92.2C19.08 94.01 16.1 94.83 13.3 94.83C5.31 94.83 0 87.07 0 72.89C0 59.41 5.49 50.77 13.54 50.77C16.57 50.77 19.43 52.11 21.24 53.98L18.56 58.94C16.98 57.48 15.58 56.43 13.54 56.43C9.4 56.43 6.25 61.97 6.25 72.65C6.25 83.91 9.17 89.4 13.6 89.4C14.42 89.4 15 89.28 15.53 88.99V75.63H10.98V70.09H21.24V70.09Z" fill="white"/>
<path d="M38.03 56.08C34.53 56.08 32.49 62.44 32.49 72.71C32.49 82.98 34.53 89.46 38.03 89.46C41.59 89.46 43.63 82.98 43.63 72.71C43.63 62.44 41.59 56.08 38.03 56.08ZM37.85 94.83C30.09 94.83 26.24 85.08 26.24 72.83C26.24 60.58 30.15 50.77 38.2 50.77C45.96 50.77 49.87 60.34 49.87 72.59C49.88 84.85 45.91 94.83 37.85 94.83Z" fill="white"/>
<path d="M66.42 56.08C62.92 56.08 60.88 62.44 60.88 72.71C60.88 82.98 62.92 89.46 66.42 89.46C69.98 89.46 72.02 82.98 72.02 72.71C72.02 62.44 69.98 56.08 66.42 56.08ZM66.24 94.83C58.48 94.83 54.63 85.08 54.63 72.83C54.63 60.58 58.54 50.77 66.59 50.77C74.35 50.77 78.26 60.34 78.26 72.59C78.27 84.85 74.3 94.83 66.24 94.83Z" fill="white"/>
<path d="M91.49 56.6101C91.08 56.6101 90.67 56.6701 90.26 56.7301V88.8801C90.61 88.9401 91.02 89.0001 91.49 89.0001C96.74 89.0001 100.01 82.9301 100.01 72.6601C100.01 63.0301 96.75 56.6101 91.49 56.6101ZM90.21 94.5401C88.11 94.5401 86.07 94.3701 84.2 94.0101V51.5301C86.01 51.2401 87.93 51.0601 90.21 51.0601C100.54 51.0601 106.26 59.4601 106.26 72.5901C106.26 85.7901 100.54 94.5401 90.21 94.5401Z" fill="white"/>
<path d="M71.06 117.04L70.34 121.08H71.77L71.06 117.04ZM72.76 125.67L72.25 123.37H69.87L69.36 125.67H66.85L70.08 111.81H72.1L75.31 125.67H72.76Z" fill="white"/>
<path d="M90.44 125.67L88.1 119.09V125.67H85.5V111.85H88.1V118.02L90.29 111.85H93.04L90.42 118.45L93.23 125.67H90.44Z" fill="white"/>
<path d="M107.23 117.04L106.51 121.08H107.94L107.23 117.04ZM108.93 125.67L108.42 123.37H106.04L105.53 125.67H103.02L106.25 111.81H108.27L111.48 125.67H108.93Z" fill="white"/>
<path d="M143.61 114.28V125.67H141.01V114.28H138.9V111.85H145.72V114.28H143.61Z" fill="white"/>
<path d="M158.76 117.04L158.04 121.08H159.47L158.76 117.04ZM160.45 125.67L159.94 123.37H157.56L157.05 125.67H154.54L157.77 111.81H159.79L163 125.67H160.45Z" fill="white"/>
<path d="M129.77 57.0702V69.8502H139.05V75.4002H129.77V94.1902H123.71V51.4102H140.34V57.0702H129.77Z" fill="white"/>
<path d="M156.09 56.08C152.59 56.08 150.55 62.44 150.55 72.71C150.55 82.98 152.59 89.46 156.09 89.46C159.65 89.46 161.69 82.98 161.69 72.71C161.69 62.44 159.65 56.08 156.09 56.08ZM155.91 94.83C148.15 94.83 144.3 85.08 144.3 72.83C144.3 60.58 148.21 50.77 156.26 50.77C164.02 50.77 167.93 60.34 167.93 72.59C167.93 84.85 163.96 94.83 155.91 94.83Z" fill="white"/>
<path d="M184.48 56.08C180.98 56.08 178.94 62.44 178.94 72.71C178.94 82.98 180.98 89.46 184.48 89.46C188.04 89.46 190.08 82.98 190.08 72.71C190.08 62.44 188.04 56.08 184.48 56.08ZM184.3 94.83C176.54 94.83 172.69 85.08 172.69 72.83C172.69 60.58 176.6 50.77 184.65 50.77C192.41 50.77 196.32 60.34 196.32 72.59C196.32 84.85 192.35 94.83 184.3 94.83Z" fill="white"/>
<path d="M209.55 56.6101C209.14 56.6101 208.73 56.6701 208.32 56.7301V88.8801C208.67 88.9401 209.08 89.0001 209.55 89.0001C214.8 89.0001 218.07 82.9301 218.07 72.6601C218.07 63.0301 214.8 56.6101 209.55 56.6101ZM208.27 94.5401C206.17 94.5401 204.13 94.3701 202.26 94.0101V51.5301C204.07 51.2401 205.99 51.0601 208.27 51.0601C218.6 51.0601 224.32 59.4601 224.32 72.5901C224.32 85.7901 218.6 94.5401 208.27 94.5401Z" fill="white"/>
<path d="M107.01 19.3199C109.5 16.4999 111.92 13.6099 114.49 10.8699C116.04 9.20995 117.81 7.74995 119.51 6.22995C119.78 5.98995 120.13 5.76995 120.48 5.70995C120.9 5.63995 121.47 5.59995 121.76 5.81995C122 5.99995 122.07 6.62995 121.98 6.98995C121.78 7.72995 121.48 8.45995 121.11 9.12995C118.27 14.1999 115.41 19.2499 112.56 24.3099C112.27 24.8199 112.01 25.3499 111.94 26.0099C113.55 24.0999 115.16 22.1999 116.77 20.2799C121.26 14.9299 126.19 10.0299 131.71 5.74995C132.38 5.22995 133.3 4.94995 134.15 4.73995C134.49 4.64995 135.05 4.97995 135.33 5.27995C135.45 5.40995 135.18 6.00995 134.97 6.31995C131.21 11.9299 127.39 17.4999 123.71 23.1499C122.57 24.9099 121.75 26.8899 120.9 28.8199C120.69 29.3099 120.85 30.0199 121 30.5899C121.15 31.1599 121 31.3499 120.48 31.3699C119.73 31.4099 119.01 30.8099 119.08 29.9699C119.16 28.9499 119.27 27.8299 119.75 26.9699C121.82 23.2799 123.97 19.6399 126.21 16.0599C127.92 13.3299 129.81 10.7199 131.8 7.78995C131.36 8.08995 131.16 8.20995 130.98 8.35995C125.4 13.0499 120.4 18.3099 115.85 23.9899C114.53 25.6399 113.1 27.2099 111.7 28.7999C111.23 29.3299 110.68 29.9199 109.89 29.4299C109.17 28.9799 109.17 28.1499 109.44 27.5199C110.38 25.3399 111.33 23.1599 112.46 21.0799C114.65 16.9999 117 12.9999 119.28 8.97995C119.41 8.75995 119.48 8.50995 119.43 8.14995C118.85 8.67995 118.23 9.17995 117.69 9.75995C110.72 17.1699 104.32 25.0399 98.96 33.7099C98.31 34.7499 97.94 35.9599 97.41 37.0799C97.18 37.5599 96.97 38.0999 96.6 38.4499C96.36 38.6699 95.79 38.6999 95.45 38.5799C95.24 38.5099 95.01 37.9499 95.09 37.6999C95.33 36.8999 95.63 36.1099 96.04 35.3799C99.51 29.0899 103.06 22.8499 106.47 16.5199C108.31 13.0999 109.95 9.55995 111.59 6.02995C112.08 4.97995 112.34 3.79995 112.54 2.64995C112.78 1.20995 112.21 0.729947 110.91 1.37995C109.36 2.15995 107.77 2.99995 106.48 4.11995C101.37 8.57995 97.81 14.0699 96.08 20.6699C95.75 21.9199 95.46 23.2099 96.19 24.4899C96.51 25.0599 95.99 25.4099 95.55 25.1299C95.06 24.8299 94.55 24.2799 94.42 23.7499C93.91 21.7499 94.46 19.7999 95.13 17.9499C97.37 11.7899 100.93 6.52995 106.11 2.44995C107.72 1.17995 109.45 0.0499469 111.63 -5.30792e-05C113.3 -0.0400531 114.21 0.769947 114.1 2.42995C114.02 3.61995 113.78 4.82995 113.39 5.94995C111.9 10.2499 109.77 14.2499 107.5 18.1699C107.3 18.5099 107.11 18.8599 106.91 19.1999C106.94 19.2399 106.97 19.2799 107.01 19.3199Z" fill="white"/>
<path d="M65.2 6.83015C63.47 10.8701 60.56 14.0201 57.45 17.0201C59.47 13.2001 61.82 9.63015 65.2 6.83015ZM83.25 18.3901C82.93 18.2101 82.53 18.0701 82.17 18.1001C81.92 18.1201 81.71 18.4601 81.47 18.6401C79.08 20.3701 76.72 22.1301 74.28 23.7801C73.77 24.1301 72.97 24.0501 72.3 24.1601C72.37 23.4601 72.26 22.6701 72.55 22.0701C73.06 20.9901 73.84 20.0401 74.45 19.0101C74.63 18.7001 74.61 18.2601 74.69 17.8801C74.25 17.8801 73.71 17.7201 73.4 17.9201C72.75 18.3201 72.22 18.9101 71.66 19.4301C69.96 21.0001 68.27 22.5901 66.55 24.1401C66.22 24.4401 65.8 24.6301 65.42 24.8701C65.34 24.8101 65.26 24.7601 65.18 24.7001C65.33 24.2401 65.4 23.7401 65.65 23.3401C66.62 21.7701 67.66 20.2501 68.63 18.6901C68.83 18.3801 68.84 17.9501 68.94 17.5801C68.5 17.5901 68.04 17.5101 67.63 17.6101C65.68 18.0701 63.75 18.6001 61.81 19.0601C61.58 19.1101 61.22 18.9701 61.04 18.8001C60.32 18.1501 59.47 17.9701 58.91 18.4701C58.15 19.1501 58.88 19.6401 59.19 20.1301C57.74 22.6201 55.21 24.7701 53.24 25.0201C53.58 23.3201 54.23 21.8701 55.31 20.7601C56.76 19.2801 58.59 18.1701 59.96 16.6301C62.06 14.2901 63.95 11.7601 65.83 9.23015C66.55 8.26015 67.12 7.12015 66.66 5.65015C67.51 5.90015 68.26 6.06015 68.97 6.34015C69.55 6.57015 70.04 6.98015 69.8 7.73015C69.6 8.36015 69.95 8.70015 70.46 8.68015C70.77 8.67015 71.24 8.28015 71.33 7.97015C71.58 7.11015 71.26 6.29015 70.46 5.92015C69.35 5.41015 68.16 4.82015 66.98 4.76015C63.64 4.61015 60.31 4.55015 57 4.73015C50.75 5.07015 44.59 6.10015 38.55 7.76015C37.49 8.05015 36.47 8.50015 35.46 8.95015C35.25 9.04015 35.15 9.41015 35 9.65015C35.25 9.78015 35.49 9.96015 35.75 10.0101C36 10.0601 36.29 10.0101 36.54 9.93015C37.98 9.42015 39.37 8.75015 40.84 8.38015C46.32 6.97015 51.91 6.24015 57.53 5.79015C59.71 5.61015 61.92 5.76015 63.88 5.76015C62.64 7.16015 61.03 8.59015 59.9 10.3301C57.22 14.4601 54.77 18.7401 52.25 22.9701C52.05 23.3101 51.94 23.7101 51.83 24.1001C51.56 25.0601 51.88 25.6401 52.83 25.9601C53.94 26.3401 54.96 26.0401 55.91 25.4701C57.83 24.3301 59.24 22.6801 60.53 20.8901C60.7 20.6601 60.89 20.3201 61.12 20.2801C62.76 19.9801 64.41 19.7501 66.18 19.4801C65.91 19.8801 65.67 20.1901 65.48 20.5301C64.89 21.5801 64.22 22.6001 63.78 23.7101C63.26 25.0201 64.04 26.1001 65.43 25.9201C66.33 25.8001 67.23 25.2801 68.01 24.7601C68.92 24.1501 69.69 23.3501 70.59 22.5701C70.46 25.0201 71.74 26.0001 74.01 25.3001C74.23 25.2301 74.46 25.1601 74.67 25.0701C77.91 23.7501 80.47 21.4701 83.04 19.2001C83.23 19.0401 83.32 18.4301 83.25 18.3901Z" fill="white"/>
<path d="M41.02 29.2801C43.53 29.1201 45.9 28.9101 48.28 28.8601C49.92 28.8201 51.56 28.9901 53.2 29.1201C53.69 29.1601 54.19 29.3201 54.63 29.5501C54.92 29.7001 55.3 30.0701 55.28 30.3101C55.25 30.6401 54.93 31.0101 54.64 31.2301C54.39 31.4101 54 31.4901 53.68 31.4601C53.35 31.4301 53.04 31.2001 52.73 31.0601C52.89 30.8101 53.05 30.5701 53.28 30.2001C52.62 30.1001 51.9 29.8801 51.19 29.9201C47.58 30.1401 43.97 30.4201 40.36 30.7101C40.09 30.7301 39.8 31.0001 39.58 31.2101C39.24 31.5301 39.01 32.0101 38.62 32.2201C38.26 32.4101 37.74 32.4501 37.34 32.3501C37.18 32.3101 37.15 31.7301 37.04 31.2801C32.65 32.3201 28.14 33.3201 24 35.4901C23.66 35.6701 22.91 35.6001 22.7 35.3501C22.26 34.8301 22.83 34.5501 23.26 34.3501C27.65 32.3501 32.25 31.0301 36.97 30.1301C38.14 29.9101 38.92 29.4601 39.64 28.4901C44.26 22.2601 48.94 16.0901 53.62 9.91012C54.35 8.95012 55.17 8.06012 55.95 7.14012C56.08 6.99012 56.23 6.79012 56.4 6.75012C56.83 6.66012 57.28 6.65012 57.72 6.62012C57.6 6.97012 57.55 7.37012 57.33 7.65012C52.01 14.6901 46.68 21.7201 41.35 28.7601C41.26 28.8901 41.18 29.0301 41.02 29.2801Z" fill="white"/>
<path d="M148.52 8.22006C148.41 8.12006 148.29 8.02006 148.18 7.92006C145.64 10.2401 143.61 12.9901 141.72 15.8401C141.82 15.9301 141.93 16.0101 142.03 16.1001L148.52 8.22006ZM173.7 18.8901C171.47 18.6301 167.46 22.6001 167.77 24.9301C169.8 22.8501 171.68 20.9401 173.7 18.8901ZM127.87 24.4501C128.03 24.4401 128.25 24.4901 128.34 24.4001C129.49 23.3001 130.62 22.1801 131.74 21.0601C131.82 20.9801 131.83 20.8101 131.81 20.6901C131.7 20.0201 131.58 19.3601 131.46 18.6901C129.55 19.6601 127.48 22.9401 127.87 24.4501ZM131.73 18.3001C132.35 17.6201 132.96 17.2001 133.76 17.6401C134.68 18.1501 134.48 19.0301 134.31 20.1201C135.66 19.6101 136.88 19.2001 138.05 18.6801C138.37 18.5401 138.58 18.1001 138.78 17.7601C140.99 13.9801 143.48 10.4101 146.69 7.39006C147.27 6.84006 147.9 6.27006 148.61 5.94006C149.06 5.73006 149.81 5.78006 150.24 6.03006C150.48 6.17006 150.55 7.10006 150.33 7.43006C148.76 9.76006 147.26 12.1701 145.43 14.2801C143.71 16.2701 141.59 17.9201 139.68 19.7601C138.26 21.1301 137.93 22.9801 137.44 25.1301C138.37 24.7601 139.1 24.6001 139.67 24.2101C142.28 22.3901 144.85 20.5001 147.42 18.6301C147.96 18.2401 148.45 17.7501 149.02 17.4201C149.25 17.2901 149.66 17.4501 149.98 17.4801C149.93 17.7901 149.98 18.1901 149.8 18.4101C148.76 19.7201 147.61 20.9501 146.63 22.2901C146.14 22.9601 145.93 23.8201 145.6 24.6001C145.7 24.6901 145.79 24.7801 145.89 24.8701C147.29 24.2701 148.75 23.7701 150.07 23.0301C152.61 21.6001 155.08 20.0301 157.55 18.4901C157.84 18.3101 157.93 17.8301 158.22 17.6501C158.62 17.3901 159.14 17.1201 159.58 17.1601C160.06 17.2001 160.33 17.5601 159.74 18.0401C159.39 18.3301 159.2 18.8001 159.07 19.2601C159.9 18.7701 160.7 18.2101 161.57 17.8101C161.93 17.6401 162.61 17.6301 162.85 17.8601C163.1 18.0901 163.16 18.7701 163.01 19.1401C162.55 20.2901 161.93 21.3701 161.41 22.4901C161.15 23.0501 160.99 23.6401 160.78 24.2201C160.85 24.2701 160.93 24.3201 161 24.3801C161.35 24.2301 161.73 24.1201 162.05 23.9101C164.42 22.3901 166.76 20.8201 169.15 19.3201C170.07 18.7401 171.04 18.2301 172.03 17.7701C172.84 17.4001 173.67 17.3801 174.32 18.2401C174.59 17.9601 174.78 17.5901 175.05 17.5101C175.44 17.3901 175.89 17.4801 176.32 17.4801C176.3 17.8401 176.4 18.2801 176.23 18.5401C175.55 19.6101 174.71 20.5801 174.1 21.6801C173.74 22.3301 173.1 23.2901 173.96 23.8401C174.43 24.1401 175.44 23.8701 176.09 23.5901C178.62 22.5001 180.71 20.7601 182.77 18.9601C183.11 18.6601 183.66 18.4301 184.09 18.4601C184.59 18.5001 184.97 18.9101 184.39 19.4301C181.98 21.5901 179.46 23.6101 176.43 24.8201C175.62 25.1401 174.6 25.1301 173.7 25.0401C172.52 24.9301 172.03 24.0501 172.04 22.8701C171.94 22.8101 171.84 22.7501 171.74 22.6901C171.34 23.1801 170.97 23.6901 170.54 24.1501C170.25 24.4701 169.92 24.7701 169.57 25.0201C168.79 25.5801 167.97 26.0701 166.96 25.6001C165.95 25.1301 166.08 24.2101 166.15 23.1201C165.73 23.3501 165.44 23.5101 165.14 23.6701C164.1 24.2101 163.07 24.7801 162.01 25.2701C161.32 25.5901 160.56 25.7401 159.93 25.1501C159.26 24.5201 159.26 23.6601 159.57 22.9001C159.97 21.9101 160.54 20.9901 161.03 20.0401C161.12 19.8701 161.18 19.7001 161.26 19.5201C161.19 19.4701 161.12 19.4101 161.05 19.3601C160.13 20.2601 159.16 21.1201 158.29 22.0701C157.3 23.1601 156.38 24.3301 155.45 25.4701C155.06 25.9501 154.56 26.2401 154.09 25.8001C153.89 25.6101 153.97 24.9401 154.13 24.6001C154.67 23.4701 155.31 22.3801 155.98 21.1601C154.32 22.1301 152.8 23.1001 151.22 23.9301C149.98 24.5801 148.66 25.0901 147.36 25.6401C147.06 25.7701 146.71 25.8201 146.38 25.8601C144.47 26.1201 143.71 25.1701 144.4 23.3701C144.49 23.1301 144.6 22.9101 144.78 22.5201C143.27 23.4701 141.97 24.4101 140.56 25.1401C139.63 25.6201 138.56 25.8701 137.52 26.0701C136.67 26.2301 136.11 25.6901 136.24 24.8301C136.45 23.3901 136.81 21.9701 137.09 20.5801C136.09 20.7801 134.92 21.0001 133.77 21.2801C133.52 21.3401 133.31 21.6301 133.11 21.8401C132.28 22.7601 131.53 23.7701 130.6 24.5901C130.03 25.1001 129.23 25.4601 128.48 25.6201C126.79 25.9801 125.79 24.9001 126.24 23.2201C126.86 20.9301 128.27 19.1701 130.21 17.8201C130.81 17.4101 131.35 17.5001 131.73 18.3001Z" fill="white"/>
<path d="M106.91 19.3398C109.39 16.5198 111.81 13.6398 114.38 10.8998C115.93 9.23975 117.7 7.78975 119.39 6.25975C119.66 6.01975 120.01 5.79975 120.35 5.73975C120.77 5.66975 121.34 5.62975 121.63 5.84975C121.87 6.02975 121.94 6.65975 121.85 7.01975C121.65 7.75975 121.35 8.48975 120.98 9.15975C118.15 14.2198 115.29 19.2698 112.44 24.3298C112.15 24.8398 111.89 25.3698 111.83 26.0298C113.44 24.1198 115.05 22.2198 116.66 20.3098C121.15 14.9698 126.07 10.0698 131.58 5.78975C132.25 5.26975 133.17 4.98975 134.01 4.77975C134.35 4.68975 134.91 5.01975 135.19 5.31975C135.31 5.44975 135.04 6.04975 134.83 6.35975C131.08 11.9598 127.26 17.5198 123.58 23.1698C122.44 24.9198 121.62 26.8998 120.78 28.8298C120.57 29.3198 120.73 30.0298 120.88 30.5998C121.03 31.1698 120.88 31.3598 120.36 31.3798C119.61 31.4198 118.89 30.8198 118.96 29.9798C119.04 28.9598 119.15 27.8398 119.63 26.9898C121.7 23.3098 123.84 19.6698 126.08 16.0898C127.79 13.3598 129.68 10.7498 131.66 7.82975C131.22 8.12975 131.02 8.24975 130.84 8.39975C125.27 13.0898 120.28 18.3298 115.72 24.0098C114.4 25.6598 112.97 27.2298 111.57 28.8098C111.1 29.3398 110.55 29.9298 109.76 29.4398C109.04 28.9898 109.04 28.1598 109.31 27.5298C110.25 25.3498 111.2 23.1698 112.33 21.0898C114.55 17.0298 116.89 13.0398 119.18 9.01975C119.31 8.79975 119.38 8.54975 119.33 8.19975C118.75 8.72975 118.13 9.22975 117.6 9.80975C110.64 17.2098 104.25 25.0698 98.89 33.7298C98.24 34.7698 97.87 35.9798 97.34 37.0998C97.11 37.5798 96.9 38.1198 96.53 38.4698C96.29 38.6898 95.72 38.7198 95.38 38.5998C95.17 38.5298 94.94 37.9698 95.02 37.7198C95.26 36.9198 95.56 36.1298 95.96 35.3998C99.42 29.1198 102.97 22.8798 106.37 16.5598C108.21 13.1398 109.85 9.60975 111.49 6.08975C111.98 5.03975 112.24 3.85975 112.44 2.71975C112.68 1.27975 112.11 0.799752 110.81 1.44975C109.26 2.22975 107.67 3.05975 106.38 4.18975C101.28 8.64975 97.72 14.1298 95.99 20.7198C95.66 21.9698 95.37 23.2498 96.1 24.5298C96.42 25.0998 95.9 25.4498 95.46 25.1698C94.97 24.8698 94.46 24.3198 94.33 23.7898C93.82 21.7898 94.37 19.8498 95.04 17.9898C97.27 11.8398 100.83 6.57975 106.01 2.49975C107.62 1.22975 109.35 0.0997516 111.53 0.0497516C113.19 0.00975161 114.11 0.819752 114 2.47975C113.92 3.66975 113.68 4.86975 113.29 5.99975C111.8 10.2898 109.67 14.2898 107.4 18.2098C107.2 18.5498 107.01 18.8898 106.81 19.2398C106.84 19.2698 106.87 19.2998 106.91 19.3398Z" fill="white"/>
<path d="M189.86 25.04C191.03 24.62 192.32 24.38 193.36 23.73C195.59 22.32 197.7 20.71 199.85 19.18C200.23 18.91 200.58 18.58 201 18.41C201.21 18.32 201.63 18.44 201.79 18.62C201.9 18.74 201.79 19.23 201.63 19.37C198.19 22.39 194.69 25.32 189.94 26.06C189.65 26.1 189.32 26.28 189.15 26.5C188.6 27.22 187.91 27.39 187.21 26.77C186.26 25.92 185.38 25 184.53 24.05C184.33 23.82 184.39 23.35 184.34 22.99C184.73 23.07 185.19 23.05 185.5 23.26C186.26 23.77 186.95 24.39 187.81 25.08C188.21 23.73 188.52 22.64 188.86 21.57C189.43 19.79 190.2 18.12 191.83 17.04C192.26 16.76 192.79 16.56 193.3 16.48C193.55 16.44 193.85 16.76 194.13 16.91C193.96 17.16 193.85 17.51 193.61 17.65C190.81 19.23 190.51 22.12 189.64 24.71C189.71 24.82 189.78 24.93 189.86 25.04Z" fill="white"/>
<path d="M185.96 12.0497C185.84 11.9797 185.52 11.8997 185.42 11.6997C185.33 11.5297 185.44 11.2097 185.56 11.0097C185.84 10.5197 186.13 10.0297 186.52 9.62973C186.71 9.42973 187.15 9.29972 187.41 9.36972C187.59 9.41972 187.77 9.88972 187.74 10.1497C187.67 10.9197 186.61 12.0797 185.96 12.0497Z" fill="white"/>
<path d="M150.74 16.28C150.41 16.07 150.05 15.97 149.97 15.75C149.9 15.57 150.07 15.2 150.25 15.03C150.58 14.71 150.96 14.35 151.38 14.23C151.72 14.13 152.15 14.37 152.54 14.46C152.42 14.76 152.39 15.16 152.17 15.35C151.76 15.72 151.24 15.97 150.74 16.28Z" fill="white"/>
</g>
<defs>
<clipPath id="clip0_6_3743">
<rect width="224.32" height="125.88" fill="white"/>
</clipPath>
</defs>
</svg>
