<svg width="48" height="48" viewBox="0 0 48 48" fill="none" xmlns="http://www.w3.org/2000/svg">
<path d="M36.71 8.56982C35.16 8.56982 33.9 9.82982 33.9 11.3798C33.9 12.9298 35.16 14.1898 36.71 14.1898C38.26 14.1898 39.52 12.9298 39.52 11.3798C39.52 9.82982 38.26 8.56982 36.71 8.56982Z" fill="white"/>
<path d="M24.2 12.1802C17.68 12.1802 12.38 17.4802 12.38 24.0002C12.38 30.5202 17.68 35.8202 24.2 35.8202C30.72 35.8202 36.02 30.5202 36.02 24.0002C36.02 17.4802 30.71 12.1802 24.2 12.1802ZM24.2 31.5702C20.02 31.5702 16.63 28.1702 16.63 24.0002C16.63 19.8202 20.03 16.4302 24.2 16.4302C28.38 16.4302 31.77 19.8302 31.77 24.0002C31.77 28.1802 28.37 31.5702 24.2 31.5702Z" fill="white"/>
<path d="M33.58 48H14.42C6.47 48 0 41.53 0 33.58V14.42C0 6.47 6.47 0 14.42 0H33.58C41.53 0 48 6.47 48 14.42V33.58C48 41.53 41.53 48 33.58 48ZM14.42 4.52C8.96 4.52 4.52 8.96 4.52 14.42V33.58C4.52 39.04 8.96 43.48 14.42 43.48H33.58C39.04 43.48 43.48 39.04 43.48 33.58V14.42C43.48 8.96 39.04 4.52 33.58 4.52H14.42Z" fill="white"/>
</svg>
